PathFileType	4	(X/Y/Z)	C:\Users\Basilio\Documents\Thesis Gigler\squatting_fais\c3dfiles\041\SJ_pre1\markers_experimental.trc
DataRate	CameraRate	NumFrames	NumMarkers	Units	OrigDataRate	OrigDataStartFrame	OrigNumFrames
200.000000	200.000000	4	62	mm	200.000000	1111	1270
Frame#	Time	FHD			LBHD			RBHD			C7			T10			CLAV			LSHO			LUUPA			LMUPA			LDUPA			LLEP			LMEP			LRAD			LUL			LRFIN			RSHO			RUPA1			RMUPA			RDUPA			RLEP			RMEP			RRAD			RUL			RUFIN			LASI			RASI			USACR			LSACR			RSACR			LTHI1			LTHI2			LTHI3			LTHI4			LLFC			LMFC			LTIB1			LTIB2			LTIB3			LTIB4			LLMAL			LMMAL			LHEE			LMT1			LMT2			LMT5			RTHI			RTHI2			RTHI3			RTHI4			RLFC			RMFC			RTIB1			RTIB2			RTIB3			RTIB4			RLMAL			RMMAL			RHEE			RMT1			RMT2			RMT5			*61			
		X1	Y1	Z1	X2	Y2	Z2	X3	Y3	Z3	X4	Y4	Z4	X5	Y5	Z5	X6	Y6	Z6	X7	Y7	Z7	X8	Y8	Z8	X9	Y9	Z9	X10	Y10	Z10	X11	Y11	Z11	X12	Y12	Z12	X13	Y13	Z13	X14	Y14	Z14	X15	Y15	Z15	X16	Y16	Z16	X17	Y17	Z17	X18	Y18	Z18	X19	Y19	Z19	X20	Y20	Z20	X21	Y21	Z21	X22	Y22	Z22	X23	Y23	Z23	X24	Y24	Z24	X25	Y25	Z25	X26	Y26	Z26	X27	Y27	Z27	X28	Y28	Z28	X29	Y29	Z29	X30	Y30	Z30	X31	Y31	Z31	X32	Y32	Z32	X33	Y33	Z33	X34	Y34	Z34	X35	Y35	Z35	X36	Y36	Z36	X37	Y37	Z37	X38	Y38	Z38	X39	Y39	Z39	X40	Y40	Z40	X41	Y41	Z41	X42	Y42	Z42	X43	Y43	Z43	X44	Y44	Z44	X45	Y45	Z45	X46	Y46	Z46	X47	Y47	Z47	X48	Y48	Z48	X49	Y49	Z49	X50	Y50	Z50	X51	Y51	Z51	X52	Y52	Z52	X53	Y53	Z53	X54	Y54	Z54	X55	Y55	Z55	X56	Y56	Z56	X57	Y57	Z57	X58	Y58	Z58	X59	Y59	Z59	X60	Y60	Z60	X61	Y61	Z61	X62	Y62	Z62	

1112	5.555	-188.868881225586	1749.882080078125	-905.0161743164065	-352.5727233886719	1657.927612304688	-984.7825927734377	-336.0452880859376	1661.101806640625	-832.6368408203127	-383.3965148925782	1520.40283203125	-924.723327636719	-409.8535461425782	1202.820678710938	-926.4291992187502	-225.6396026611329	1456.931396484375	-922.4234008789065	-283.9255676269532	1512.243408203125	-1098.626098632813	-339.9943847656251	1378.6005859375	-1241.030517578125	-322.2489013671876	1332.422119140625	-1238.540405273438	-364.7437438964844	1328.494384765625	-1282.461791992188	-379.9896240234376	1283.344970703125	-1307.559204101563	-442.6003417968751	1250.543701171875	-1247.894409179688	-312.0587158203126	1091.406860351563	-1133.755126953125	-296.0077209472657	1047.517211914063	-1192.80078125	-262.9971008300782	1071.668701171875	-1095.29931640625	-278.5742492675782	1511.070556640625	-749.2197265625001	-353.4491271972657	1372.103149414063	-589.9652099609376	-315.7342834472657	1338.398803710938	-596.6259765625001	-345.5167236328126	1310.37255859375	-555.4281005859376	-348.0179443359376	1262.373779296875	-537.4960327148439	-424.1975708007814	1245.6787109375	-590.8909912109376	-340.1085815429688	1068.542602539063	-706.9413452148439	-294.9199523925782	1058.588256835938	-747.6329956054689	-315.2621154785157	1022.425170898438	-650.9790039062501	-226.235092163086	1013.6865234375	-1029.279907226563	-245.1022033691407	1002.396118164063	-810.8484497070315	-413.4869689941407	1090.67919921875	-929.575866699219	-426.5674438476564	1065.54248046875	-957.421081542969	-435.7284240722657	1066.151245117188	-904.4915161132815	-360.5189208984376	824.0029296875002	-1130.106567382813	-330.3421936035157	745.3137817382814	-1137.33837890625	-283.2725830078126	744.9503173828126	-1126.632202148438	-363.6439819335938	693.6768798828126	-1132.087524414063	-359.6707763671876	514.4429321289064	-1140.469848632813	-347.6851806640626	477.7829589843751	-1027.4697265625	-335.1986694335938	317.4785766601563	-1119.87744140625	-386.6483154296876	285.8369140625001	-1186.67138671875	-349.0712585449219	277.6192932128907	-1163.095336914063	-350.1217956542969	195.2138977050782	-1144.287475585938	-413.8538208007814	103.6876678466797	-1194.554809570313	-369.2556152343751	101.7939605712891	-1116.4140625	-468.2205810546876	53.60298538208009	-1159.794067382813	-249.898178100586	59.52039337158205	-1150.072021484375	-247.4089660644532	58.89894104003908	-1195.204345703125	-291.3033447265626	34.40078735351563	-1248.164916992188	-392.1196594238282	769.1690673828127	-730.5736694335939	-360.4624938964844	711.2109985351564	-720.4338378906251	-327.4008483886719	708.7703857421876	-723.2249145507814	-394.7235107421876	634.6679687500001	-731.8661499023439	-401.7178039550782	506.708221435547	-719.0807495117189	-378.1233520507813	474.8439331054689	-833.268493652344	-362.4127807617188	341.5137329101563	-706.4746704101564	-440.5671386718751	262.7018127441407	-687.0728149414064	-393.3496704101564	262.8579101562501	-684.1835327148439	-366.9516601562501	213.5100097656251	-705.5452880859376	-415.8918457031251	94.85200500488283	-682.2325439453126	-382.7360534667969	102.2401504516602	-759.1486816406251	-467.2809143066407	48.7208824157715	-729.9081420898439	-248.5205535888672	52.84031677246095	-723.6658935546876	-250.5482330322266	56.5317726135254	-672.0734863281251	-296.1800842285157	36.81792068481446	-624.1879272460939	-4217.313964843751	853.228698730469	-3944.564941406251	
1113	5.56	-188.9301910400391	1749.89697265625	-905.102233886719	-352.6777343750001	1657.9482421875	-984.833679199219	-336.2453613281251	1661.078002929688	-832.6640625000002	-383.4882202148438	1520.405395507813	-924.8123779296877	-409.8004760742189	1202.72607421875	-926.5571899414065	-225.6464996337891	1456.949951171875	-922.5574951171877	-284.1527709960938	1512.15087890625	-1098.785766601563	-339.9408264160157	1378.5068359375	-1241.2783203125	-322.4382324218751	1332.371826171875	-1238.646362304688	-364.9865112304688	1328.357055664063	-1282.550048828125	-380.2898254394532	1283.282470703125	-1307.55712890625	-442.7384033203126	1250.377563476563	-1247.859008789063	-312.0824279785157	1091.337280273438	-1133.791748046875	-295.9216308593751	1047.398681640625	-1192.94921875	-262.9472045898438	1071.664916992188	-1095.427368164063	-278.7844543457032	1510.908813476563	-749.3351440429689	-353.4354248046876	1371.89306640625	-590.0884399414064	-315.7968139648438	1338.163208007813	-596.6909179687501	-345.4444885253907	1310.0859375	-555.6051635742189	-347.9450683593751	1262.236328125	-537.5819702148439	-424.1394348144532	1245.397216796875	-590.9703369140626	-339.9248962402344	1068.3349609375	-707.0985717773439	-294.8553161621094	1058.487060546875	-747.7248535156251	-315.1681213378907	1022.291442871094	-651.0863647460939	-226.0747985839844	1013.569885253906	-1029.389770507813	-245.0559844970704	1002.348999023438	-810.9639892578127	-413.3434448242189	1090.66943359375	-929.7127685546877	-426.3917236328126	1065.483520507813	-957.5541992187502	-435.6212463378907	1066.155395507813	-904.627136230469	-360.4971923828126	824.0661621093752	-1130.28662109375	-330.3811340332032	745.3892822265626	-1137.47900390625	-283.3650512695313	744.9656372070314	-1126.755493164063	-363.7822265625001	693.8316650390626	-1132.204711914063	-360.1064147949219	514.5414428710939	-1140.512939453125	-348.0391540527344	477.838348388672	-1027.550415039063	-335.3204650878907	317.7012939453126	-1120.080200195313	-386.8836364746095	285.8695678710938	-1186.703857421875	-349.3282470703126	277.8188476562501	-1163.144409179688	-350.2002868652344	195.2436676025391	-1144.301635742188	-413.9306030273439	103.696403503418	-1194.517333984375	-369.2765197753907	101.7976760864258	-1116.444580078125	-468.2140502929689	53.59878158569337	-1159.809448242188	-249.882308959961	59.54116439819337	-1150.01513671875	-247.3831787109376	58.86357879638673	-1195.170166015625	-291.3081054687501	34.41375732421876	-1248.161865234375	-391.8482360839845	769.184020996094	-730.6141357421876	-360.1958618164063	711.1778564453126	-720.4083251953126	-327.0899963378907	708.8339843750001	-723.2191162109376	-394.4978027343751	634.5830078125001	-731.9807739257814	-401.2031860351564	506.678680419922	-719.1790161132814	-377.7946777343751	474.8143920898439	-833.353942871094	-362.1890563964844	341.5018920898438	-706.4187622070314	-440.4189758300782	262.7153930664063	-687.1091308593751	-393.0971679687501	262.8013305664063	-684.1893920898439	-366.9247741699219	213.4263763427735	-705.5295410156251	-415.8496704101564	94.82303619384767	-682.2348022460939	-382.2256164550782	101.9285430908203	-759.1311645507814	-467.2997436523439	48.73150634765626	-729.9169311523439	-248.4893951416016	52.82173919677736	-723.6571655273439	-250.5414276123047	56.52453613281251	-672.1007080078126	-296.1868896484376	36.81489562988282	-624.1832885742189	-4216.833007812501	853.1006469726565	-3944.558593750001	
1114	5.565	-189.4270782470703	1750.063842773438	-905.215270996094	-352.8502197265626	1657.945922851563	-984.8909912109377	-336.3612670898438	1661.063842773438	-832.6920166015627	-383.6174011230469	1520.404907226563	-924.900817871094	-409.8011779785157	1202.706176757813	-926.7264404296877	-225.6960906982422	1456.960083007813	-922.609558105469	-284.3513488769532	1512.092529296875	-1098.899780273438	-340.1659851074219	1378.382080078125	-1241.33544921875	-322.7150573730469	1332.296997070313	-1238.715209960938	-365.2454528808594	1328.213134765625	-1282.571899414063	-380.5610656738282	1283.151611328125	-1307.619140625	-442.8870544433595	1250.214965820313	-1247.871337890625	-311.9219970703126	1091.241577148438	-1133.966918945313	-295.9150085449219	1047.368286132813	-1193.107788085938	-262.7423095703126	1071.580810546875	-1095.638793945313	-278.9927368164063	1510.824462890625	-749.3751220703126	-353.4185791015626	1371.69580078125	-590.2243652343751	-315.8069458007813	1338.0166015625	-596.8027954101564	-345.4656982421876	1309.8857421875	-555.7200927734376	-347.8773498535157	1261.99072265625	-537.6301879882814	-424.0805969238282	1245.165771484375	-591.0963134765626	-339.8756103515626	1068.196166992188	-707.2113647460939	-294.8478088378907	1058.383544921875	-747.7820434570314	-315.0658569335938	1022.156372070313	-651.2359619140626	-226.0261688232422	1013.546752929688	-1029.4404296875	-244.5157318115235	1002.348022460938	-811.2832031250002	-413.2248535156251	1090.64306640625	-929.803161621094	-426.3524780273439	1065.515014648438	-957.6616821289065	-435.6558227539064	1066.103149414063	-904.8733520507815	-360.4563293457032	824.1820068359377	-1130.439453125	-330.4683227539063	745.4188842773439	-1137.613525390625	-283.4689636230469	744.9479980468751	-1126.8115234375	-363.9898681640626	693.9081420898439	-1132.261352539063	-360.5736389160157	514.5884399414064	-1140.536743164063	-348.3886413574219	477.9250488281251	-1027.570068359375	-335.4834899902344	317.8199768066407	-1120.148071289063	-387.4760131835939	286.4349975585938	-1186.688598632813	-349.5513305664063	277.6582031250001	-1163.094360351563	-350.5038146972657	195.3125762939454	-1144.266845703125	-413.9186096191407	103.6667098999024	-1194.556518554688	-369.2356262207032	101.7935943603516	-1116.460571289063	-468.1713867187501	53.53856658935548	-1159.8076171875	-249.8874053955079	59.5548439025879	-1150.04150390625	-247.4476165771485	58.84976196289064	-1195.177612304688	-291.3471984863282	34.43590545654298	-1248.20458984375	-391.6631469726564	769.2407836914065	-730.4743041992189	-359.8186035156251	711.2217407226564	-720.3989868164064	-326.8515014648438	708.8023071289064	-723.2366333007814	-394.0160522460939	634.5377197265626	-732.0356445312501	-400.7786560058595	506.7156066894532	-719.2271118164064	-377.4730224609376	474.7593383789064	-833.3594360351565	-362.0001220703126	341.4001464843751	-706.4006958007814	-440.2525024414064	262.7576293945313	-687.1033935546876	-392.9693908691407	262.7889099121094	-684.2163085937501	-366.7317504882813	213.416488647461	-705.4966430664064	-415.764129638672	94.8251419067383	-682.2320556640626	-382.2487792968751	101.929931640625	-759.1693725585939	-467.3291320800782	48.77988433837892	-729.9183959960939	-248.4996185302735	52.84084320068361	-723.6660766601564	-250.1464996337891	56.77305603027345	-671.7721557617189	-296.1760864257813	36.79904556274415	-624.1950683593751	-4217.524414062501	853.2680664062502	-3944.730957031251	
1115	5.57	-189.2914123535157	1749.864624023438	-905.2756347656252	-353.0416564941407	1657.969482421875	-984.9014282226565	-336.4506225585938	1661.027709960938	-832.745788574219	-383.6759643554688	1520.361328125	-925.0288085937502	-409.7525024414064	1202.60595703125	-926.883728027344	-225.7875061035157	1456.948120117188	-922.7437133789065	-284.5688781738282	1512.028930664063	-1099.047607421875	-340.4847412109376	1378.315673828125	-1241.4140625	-323.0016784667969	1332.250366210938	-1238.760498046875	-365.5360107421876	1328.16748046875	-1282.567138671875	-380.7457885742188	1283.016235351563	-1307.69677734375	-443.0457763671876	1250.021240234375	-1247.86083984375	-311.8882141113282	1091.120971679688	-1134.072265625	-295.8289794921876	1047.300903320313	-1193.237426757813	-262.5643005371094	1071.577270507813	-1095.802856445313	-279.1611938476563	1510.751708984375	-749.4539794921876	-353.6459655761719	1371.54345703125	-590.1962280273439	-315.8252563476563	1337.941040039063	-596.9816284179689	-345.4652709960938	1309.794555664063	-555.8287353515626	-347.8277587890626	1261.770263671875	-537.7100219726564	-424.061492919922	1244.958862304688	-591.1697387695314	-339.8776245117188	1068.07275390625	-707.3489990234376	-294.6658935546876	1058.166137695313	-747.9534912109376	-315.0206909179688	1022.016418457031	-651.3520507812501	-225.9783935546876	1013.502563476563	-1029.46728515625	-244.5021209716797	1002.350708007813	-811.3629150390627	-413.1026916503907	1090.624145507813	-929.9234619140627	-426.423065185547	1065.551879882813	-957.8467407226565	-435.5140686035157	1066.0166015625	-904.970886230469	-360.3887634277344	824.293395996094	-1130.612060546875	-330.5423583984376	745.4443359375001	-1137.676147460938	-283.4911499023438	744.9035644531251	-1126.866333007813	-364.0434265136719	693.8773803710939	-1132.39794921875	-360.9809875488282	514.6486816406251	-1140.560546875	-349.2707519531251	477.8602294921876	-1027.573608398438	-335.7680053710938	317.8919677734376	-1120.2109375	-387.766082763672	286.4517211914063	-1186.769409179688	-349.8274536132813	277.4089050292969	-1163.285034179688	-350.6828613281251	195.6302337646485	-1144.23828125	-413.9224853515626	103.6456985473633	-1194.549438476563	-369.2909545898438	101.8100509643555	-1116.466552734375	-468.1801757812501	53.4852752685547	-1159.805053710938	-249.9087829589844	59.53159332275392	-1150.024169921875	-247.4602508544922	58.87818527221681	-1195.210571289063	-291.3028564453126	34.40512847900391	-1248.198364257813	-391.3720703125001	769.2866821289065	-730.4619750976564	-359.6296386718751	711.2573242187501	-720.3135986328126	-326.2201538085938	708.6132812500001	-723.4633789062501	-393.7281799316407	634.5757446289064	-732.0099487304689	-400.3312988281251	506.5600891113282	-719.3448486328126	-377.0592651367188	474.7457885742189	-833.382263183594	-361.7124328613282	341.4969177246094	-706.4170532226564	-440.0455627441407	262.7745971679688	-687.1646728515626	-392.8469543457032	262.7682800292969	-684.1787719726564	-366.5636901855469	213.3270568847657	-705.5270385742189	-415.7033996582032	94.83065032958986	-682.2885742187501	-382.6632080078126	102.2593231201172	-759.1786499023439	-467.2307128906251	48.70668792724611	-729.9132690429689	-248.4824371337891	52.82011032104494	-723.7046508789064	-250.1316223144532	57.04883575439455	-671.6231079101564	-296.1837463378907	36.82038879394532	-624.1896362304689	-4216.967285156251	853.1734008789065	-3944.640625000001	
